<?xml version="1.0" encoding="UTF-8" standalone="no"?>
<svg
   xmlns:dc="http://purl.org/dc/elements/1.1/"
   xmlns:cc="http://creativecommons.org/ns#"
   xmlns:rdf="http://www.w3.org/1999/02/22-rdf-syntax-ns#"
   xmlns:svg="http://www.w3.org/2000/svg"
   xmlns="http://www.w3.org/2000/svg"
   viewBox="0 0 907.08667 248.83333"
   height="248.83333"
   width="907.08667"
   xml:space="preserve"
   id="svg2"
   version="1.1"><metadata
     id="metadata8"><rdf:RDF><cc:Work
         rdf:about=""><dc:format>image/svg+xml</dc:format><dc:type
           rdf:resource="http://purl.org/dc/dcmitype/StillImage" /></cc:Work></rdf:RDF></metadata><defs
     id="defs6"><clipPath
       id="clipPath18"
       clipPathUnits="userSpaceOnUse"><path
         id="path16"
         d="M 0,186.625 H 680.315 V 0 H 0 Z" /></clipPath></defs><g
     transform="matrix(1.3333333,0,0,-1.3333333,0,248.83333)"
     id="g10"><g
       id="g12"><g
         clip-path="url(#clipPath18)"
         id="g14"><g
           transform="translate(465.187,108.126)"
           id="g20"><path
             id="path22"
             style="fill:#ffffff;fill-opacity:1;fill-rule:nonzero;stroke:none"
             d="M 0,0 9.639,-21.79 H -9.64 Z M 19.379,-43.78 H 29.02 L 0,18.477 -29.021,-43.78 h 9.641 l 6.225,14.158 H 13.054 Z M -256.96,0 l 9.64,-21.79 h -19.28 z m 19.38,-43.78 h 9.64 l -29.02,62.257 -29.019,-62.257 h 9.639 l 6.225,14.158 h 26.209 z m 384.685,60.048 h -9.137 L 122.505,-8.535 106.739,16.268 h -9.638 l 20.884,-33.94 V -43.78 h 8.738 v 27.112 z m -533.398,0 h -8.736 V -43.78 h 8.736 z m 260.473,0 h -8.836 V -43.78 h 8.836 z M 55.328,-10.142 V 8.436 h 7.329 c 4.118,0 6.628,-0.603 8.335,-2.109 1.907,-1.707 3.112,-4.619 3.112,-7.531 0,-3.615 -1.906,-6.628 -5.22,-8.034 -1.707,-0.702 -4.017,-0.904 -9.44,-0.904 z M 88.163,-43.78 70.089,-17.271 c 8.433,2.209 12.953,8.033 12.953,16.468 0,6.125 -2.711,11.447 -7.632,14.259 -3.916,2.41 -7.13,2.812 -18.376,2.812 H 46.592 V -43.78 h 8.736 v 25.706 h 4.619 L 77.117,-43.78 Z M -46.292,16.268 h -8.735 v -40.869 l -44.986,42.074 V -43.78 h 8.736 v 40.969 l 44.985,-42.174 z m -136.06,-29.522 v -7.833 h 15.965 c -1.707,-10.041 -8.736,-16.267 -19.38,-16.267 -12.852,0 -21.488,10.443 -21.488,24.401 0,12.752 8.937,22.694 21.689,22.694 7.732,0 13.355,-3.214 19.079,-10.644 l 7.129,5.523 c -6.727,9.037 -15.464,13.455 -26.409,13.455 -7.028,0 -12.953,-2.209 -18.576,-6.326 -8.134,-6.025 -12.552,-14.962 -12.552,-25.405 0,-8.836 3.314,-17.071 9.339,-23.095 5.924,-6.025 12.451,-8.937 21.789,-8.937 8.937,0 15.665,3.013 21.188,9.037 5.322,5.624 7.933,12.351 8.836,23.397 z m -129.735,32.333 -19.28,-44.584 -19.48,44.584 -15.163,-62.859 h 9.64 l 8.335,37.053 16.668,-39.563 16.669,39.563 8.234,-37.053 h 9.64 z" /></g></g></g></g></svg>